<svg width="390" height="455" viewBox="0 0 390 455" fill="none" xmlns="http://www.w3.org/2000/svg">
<path d="M72.6026 404.232H45.9146L41.4986 417H27.3866L51.4826 349.896H67.1306L91.2266 417H77.0186L72.6026 404.232ZM68.9546 393.48L59.2586 365.448L49.5626 393.48H68.9546ZM113.673 349.992V417H100.233V349.992H113.673ZM147.304 417.864C142.952 417.864 139.048 417.096 135.592 415.56C132.136 413.96 129.384 411.816 127.336 409.128C125.352 406.44 124.264 403.464 124.072 400.2H137.608C137.864 402.248 138.856 403.944 140.584 405.288C142.376 406.632 144.584 407.304 147.208 407.304C149.768 407.304 151.752 406.792 153.16 405.768C154.632 404.744 155.368 403.432 155.368 401.832C155.368 400.104 154.472 398.824 152.68 397.992C150.952 397.096 148.168 396.136 144.328 395.112C140.36 394.152 137.096 393.16 134.536 392.136C132.04 391.112 129.864 389.544 128.008 387.432C126.216 385.32 125.32 382.472 125.32 378.888C125.32 375.944 126.152 373.256 127.816 370.824C129.544 368.392 131.976 366.472 135.112 365.064C138.312 363.656 142.056 362.952 146.344 362.952C152.68 362.952 157.736 364.552 161.512 367.752C165.288 370.888 167.368 375.144 167.752 380.52H154.888C154.696 378.408 153.8 376.744 152.2 375.528C150.664 374.248 148.584 373.608 145.96 373.608C143.528 373.608 141.64 374.056 140.296 374.952C139.016 375.848 138.376 377.096 138.376 378.696C138.376 380.488 139.272 381.864 141.064 382.824C142.856 383.72 145.64 384.648 149.416 385.608C153.256 386.568 156.424 387.56 158.92 388.584C161.416 389.608 163.56 391.208 165.352 393.384C167.208 395.496 168.168 398.312 168.232 401.832C168.232 404.904 167.368 407.656 165.64 410.088C163.976 412.52 161.544 414.44 158.344 415.848C155.208 417.192 151.528 417.864 147.304 417.864ZM186.081 357.48C183.713 357.48 181.729 356.744 180.129 355.272C178.593 353.736 177.825 351.848 177.825 349.608C177.825 347.368 178.593 345.512 180.129 344.04C181.729 342.504 183.713 341.736 186.081 341.736C188.449 341.736 190.401 342.504 191.937 344.04C193.537 345.512 194.337 347.368 194.337 349.608C194.337 351.848 193.537 353.736 191.937 355.272C190.401 356.744 188.449 357.48 186.081 357.48ZM192.705 363.816V417H179.265V363.816H192.705ZM226.815 362.952C230.783 362.952 234.271 363.752 237.279 365.352C240.287 366.888 242.655 368.904 244.383 371.4V363.816H257.919V417.384C257.919 422.312 256.927 426.696 254.943 430.536C252.959 434.44 249.983 437.512 246.015 439.752C242.047 442.056 237.247 443.208 231.615 443.208C224.063 443.208 217.855 441.448 212.991 437.928C208.191 434.408 205.471 429.608 204.831 423.528H218.175C218.879 425.96 220.383 427.88 222.687 429.288C225.055 430.76 227.903 431.496 231.231 431.496C235.135 431.496 238.303 430.312 240.735 427.944C243.167 425.64 244.383 422.12 244.383 417.384V409.128C242.655 411.624 240.255 413.704 237.183 415.368C234.175 417.032 230.719 417.864 226.815 417.864C222.335 417.864 218.239 416.712 214.527 414.408C210.815 412.104 207.871 408.872 205.695 404.712C203.583 400.488 202.527 395.656 202.527 390.216C202.527 384.84 203.583 380.072 205.695 375.912C207.871 371.752 210.783 368.552 214.431 366.312C218.143 364.072 222.271 362.952 226.815 362.952ZM244.383 390.408C244.383 387.144 243.743 384.36 242.463 382.056C241.183 379.688 239.455 377.896 237.279 376.68C235.103 375.4 232.767 374.76 230.271 374.76C227.775 374.76 225.471 375.368 223.359 376.584C221.247 377.8 219.519 379.592 218.175 381.96C216.895 384.264 216.255 387.016 216.255 390.216C216.255 393.416 216.895 396.232 218.175 398.664C219.519 401.032 221.247 402.856 223.359 404.136C225.535 405.416 227.839 406.056 230.271 406.056C232.767 406.056 235.103 405.448 237.279 404.232C239.455 402.952 241.183 401.16 242.463 398.856C243.743 396.488 244.383 393.672 244.383 390.408ZM300.998 363.048C305.03 363.048 308.614 363.944 311.75 365.736C314.886 367.464 317.318 370.056 319.046 373.512C320.838 376.904 321.734 381 321.734 385.8V417H308.294V387.624C308.294 383.4 307.238 380.168 305.126 377.928C303.014 375.624 300.134 374.472 296.486 374.472C292.774 374.472 289.83 375.624 287.654 377.928C285.542 380.168 284.486 383.4 284.486 387.624V417H271.046V345.96H284.486V370.44C286.214 368.136 288.518 366.344 291.398 365.064C294.278 363.72 297.478 363.048 300.998 363.048ZM350.163 374.856V400.584C350.163 402.376 350.579 403.688 351.411 404.52C352.307 405.288 353.779 405.672 355.827 405.672H362.067V417H353.619C342.291 417 336.627 411.496 336.627 400.488V374.856H330.291V363.816H336.627V350.664H350.163V363.816H362.067V374.856H350.163Z" fill="white"/>
<path d="M254.61 244.145L261.51 259.325" stroke="white" stroke-width="3" stroke-linecap="round"/>
<path d="M345 158.189C311.062 106.483 231.957 86.7477 199.461 87.1237C166.965 87.4997 95.768 108.633 68.4411 158.189" stroke="white" stroke-width="10" stroke-linecap="round"/>
<path d="M345 157.895C311.131 204.581 232.185 222.4 199.755 222.06C167.325 221.721 96.2717 202.639 69 157.895" stroke="white" stroke-width="10" stroke-linecap="round"/>
<path d="M256.82 144.44C256.82 173.919 232.023 198.055 201.135 198.055C170.247 198.055 145.45 173.919 145.45 144.44C145.45 114.961 170.247 90.825 201.135 90.825C232.023 90.825 256.82 114.961 256.82 144.44Z" stroke="white" stroke-width="8"/>
<path d="M117.99 19.8949L148.005 56.8099M199.41 3.67993V47.1499M283.935 19.8949L253.575 56.8099" stroke="white" stroke-width="7" stroke-linecap="round"/>
<circle cx="234.255" cy="198.95" r="47.715" stroke="white" stroke-width="6"/>
<mask id="path-8-inside-1_103_1190" fill="white">
<rect x="251.16" y="261.31" width="20.621" height="58.65" rx="3" transform="rotate(-25.5222 251.16 261.31)"/>
</mask>
<rect x="251.16" y="261.31" width="20.621" height="58.65" rx="3" transform="rotate(-25.5222 251.16 261.31)" stroke="white" stroke-width="10" mask="url(#path-8-inside-1_103_1190)"/>
<path d="M188.32 127.19C188.32 129.5 186.322 131.625 183.54 131.625C180.758 131.625 178.76 129.5 178.76 127.19C178.76 124.879 180.758 122.755 183.54 122.755C186.322 122.755 188.32 124.879 188.32 127.19Z" stroke="white" stroke-width="7"/>
</svg>
